<mxfile host="app.diagrams.net" agent="Mozilla/5.0 (Windows NT 10.0; Win64; x64) AppleWebKit/537.36 (KHTML, like Gecko) Chrome/139.0.0.0 Safari/537.36" version="28.1.0">
  <diagram name="PÃ¡gina-1" id="nRF7GJp5DPxdWa7ci9V1">
    <mxGraphModel dx="872" dy="465" grid="1" gridSize="10" guides="1" tooltips="1" connect="1" arrows="1" fold="1" page="1" pageScale="1" pageWidth="827" pageHeight="1169" math="0" shadow="0">
      <root>
        <mxCell id="0" />
        <mxCell id="1" parent="0" />
        <mxCell id="epXiM4IwscZuHE9p7Xp_-51" value="" style="rounded=0;whiteSpace=wrap;html=1;dashed=1;dashPattern=8 8;" vertex="1" parent="1">
          <mxGeometry x="200" y="110" width="440" height="480" as="geometry" />
        </mxCell>
        <mxCell id="epXiM4IwscZuHE9p7Xp_-14" value="" style="rounded=0;whiteSpace=wrap;html=1;" vertex="1" parent="1">
          <mxGeometry x="210" y="180" width="420" height="400" as="geometry" />
        </mxCell>
        <mxCell id="epXiM4IwscZuHE9p7Xp_-16" value="" style="rounded=0;whiteSpace=wrap;html=1;" vertex="1" parent="1">
          <mxGeometry x="230" y="260" width="380" height="310" as="geometry" />
        </mxCell>
        <mxCell id="epXiM4IwscZuHE9p7Xp_-32" value="" style="rounded=0;whiteSpace=wrap;html=1;" vertex="1" parent="1">
          <mxGeometry x="250" y="340" width="340" height="210" as="geometry" />
        </mxCell>
        <mxCell id="epXiM4IwscZuHE9p7Xp_-9" value="" style="rounded=0;whiteSpace=wrap;html=1;" vertex="1" parent="1">
          <mxGeometry x="370" y="450" width="90" height="90" as="geometry" />
        </mxCell>
        <mxCell id="epXiM4IwscZuHE9p7Xp_-1" value="" style="verticalLabelPosition=bottom;aspect=fixed;html=1;shape=mxgraph.salesforce.web2;" vertex="1" parent="1">
          <mxGeometry x="390" y="461.88" width="55" height="55" as="geometry" />
        </mxCell>
        <mxCell id="epXiM4IwscZuHE9p7Xp_-2" value="" style="outlineConnect=0;dashed=0;verticalLabelPosition=bottom;verticalAlign=top;align=center;html=1;shape=mxgraph.aws3.data_encryption_key;fillColor=#7D7C7C;gradientColor=none;" vertex="1" parent="1">
          <mxGeometry x="270" y="280" width="50" height="50" as="geometry" />
        </mxCell>
        <mxCell id="epXiM4IwscZuHE9p7Xp_-26" value="" style="points=[];aspect=fixed;html=1;align=center;shadow=0;dashed=0;fillColor=#FF6A00;strokeColor=none;shape=mxgraph.alibaba_cloud.cfw_cloud_firewall;" vertex="1" parent="1">
          <mxGeometry x="384" y="190" width="59.84" height="42.05" as="geometry" />
        </mxCell>
        <mxCell id="epXiM4IwscZuHE9p7Xp_-29" value="WAF - API Gateway" style="text;html=1;align=center;verticalAlign=middle;whiteSpace=wrap;rounded=0;fontSize=11;" vertex="1" parent="1">
          <mxGeometry x="355.1" y="232.05" width="126" height="30" as="geometry" />
        </mxCell>
        <mxCell id="epXiM4IwscZuHE9p7Xp_-31" value="Usuario" style="text;html=1;align=center;verticalAlign=middle;whiteSpace=wrap;rounded=0;fontSize=11;" vertex="1" parent="1">
          <mxGeometry x="374" y="516.88" width="80" height="30" as="geometry" />
        </mxCell>
        <mxCell id="epXiM4IwscZuHE9p7Xp_-35" value="" style="points=[];aspect=fixed;html=1;align=center;shadow=0;dashed=0;fillColor=#FF6A00;strokeColor=none;shape=mxgraph.alibaba_cloud.ccn_cloud_connect_network;" vertex="1" parent="1">
          <mxGeometry x="529.45" y="360" width="41.1" height="33.63" as="geometry" />
        </mxCell>
        <mxCell id="epXiM4IwscZuHE9p7Xp_-42" value="Login" style="html=1;whiteSpace=wrap;strokeColor=none;fillColor=#0079D6;labelPosition=center;verticalLabelPosition=middle;verticalAlign=top;align=center;fontSize=12;outlineConnect=0;spacingTop=-6;fontColor=#FFFFFF;sketch=0;shape=mxgraph.sitemap.login;" vertex="1" parent="1">
          <mxGeometry x="510" y="280" width="70" height="50" as="geometry" />
        </mxCell>
        <mxCell id="epXiM4IwscZuHE9p7Xp_-43" value="" style="endArrow=classic;startArrow=classic;html=1;rounded=0;exitX=1;exitY=0.5;exitDx=0;exitDy=0;exitPerimeter=0;entryX=0;entryY=0.5;entryDx=0;entryDy=0;entryPerimeter=0;" edge="1" parent="1" source="epXiM4IwscZuHE9p7Xp_-2" target="epXiM4IwscZuHE9p7Xp_-42">
          <mxGeometry width="50" height="50" relative="1" as="geometry">
            <mxPoint x="330" y="450" as="sourcePoint" />
            <mxPoint x="380" y="400" as="targetPoint" />
          </mxGeometry>
        </mxCell>
        <mxCell id="epXiM4IwscZuHE9p7Xp_-44" value="IdP Auth" style="text;html=1;align=center;verticalAlign=middle;whiteSpace=wrap;rounded=0;fontSize=10;fontStyle=0" vertex="1" parent="1">
          <mxGeometry x="370" y="310" width="70" height="20" as="geometry" />
        </mxCell>
        <mxCell id="epXiM4IwscZuHE9p7Xp_-45" value="Web Service" style="text;html=1;align=center;verticalAlign=middle;whiteSpace=wrap;rounded=0;fontSize=10;fontStyle=0" vertex="1" parent="1">
          <mxGeometry x="380" y="350.00000000000006" width="70" height="20" as="geometry" />
        </mxCell>
        <mxCell id="epXiM4IwscZuHE9p7Xp_-46" value="Navegador" style="text;html=1;align=center;verticalAlign=middle;whiteSpace=wrap;rounded=0;fontSize=10;fontStyle=0" vertex="1" parent="1">
          <mxGeometry x="515" y="393.63000000000005" width="70" height="20" as="geometry" />
        </mxCell>
        <mxCell id="epXiM4IwscZuHE9p7Xp_-48" value="JWT Token" style="text;html=1;align=center;verticalAlign=middle;whiteSpace=wrap;rounded=0;fontSize=10;fontStyle=0" vertex="1" parent="1">
          <mxGeometry x="374" y="280" width="70" height="20" as="geometry" />
        </mxCell>
        <mxCell id="epXiM4IwscZuHE9p7Xp_-50" value="Monitoreo y Logging" style="text;html=1;align=center;verticalAlign=middle;whiteSpace=wrap;rounded=0;fontSize=10;fontStyle=0" vertex="1" parent="1">
          <mxGeometry x="365" y="160" width="100" height="20" as="geometry" />
        </mxCell>
        <mxCell id="epXiM4IwscZuHE9p7Xp_-52" value="Log" style="html=1;whiteSpace=wrap;strokeColor=none;fillColor=#0079D6;labelPosition=center;verticalLabelPosition=middle;verticalAlign=top;align=center;fontSize=12;outlineConnect=0;spacingTop=-6;fontColor=#FFFFFF;sketch=0;shape=mxgraph.sitemap.log;" vertex="1" parent="1">
          <mxGeometry x="377.5" y="120" width="75" height="40" as="geometry" />
        </mxCell>
        <mxCell id="epXiM4IwscZuHE9p7Xp_-53" value="HTTPS" style="text;html=1;align=center;verticalAlign=middle;whiteSpace=wrap;rounded=0;fontSize=10;fontStyle=0" vertex="1" parent="1">
          <mxGeometry x="384" y="429.99" width="70" height="20" as="geometry" />
        </mxCell>
        <mxCell id="epXiM4IwscZuHE9p7Xp_-56" value="" style="sketch=0;points=[[0,0,0],[0.25,0,0],[0.5,0,0],[0.75,0,0],[1,0,0],[0,1,0],[0.25,1,0],[0.5,1,0],[0.75,1,0],[1,1,0],[0,0.25,0],[0,0.5,0],[0,0.75,0],[1,0.25,0],[1,0.5,0],[1,0.75,0]];points=[[0,0,0],[0.25,0,0],[0.5,0,0],[0.75,0,0],[1,0,0],[0,1,0],[0.25,1,0],[0.5,1,0],[0.75,1,0],[1,1,0],[0,0.25,0],[0,0.5,0],[0,0.75,0],[1,0.25,0],[1,0.5,0],[1,0.75,0]];outlineConnect=0;fontColor=#232F3E;fillColor=#E7157B;strokeColor=#ffffff;dashed=0;verticalLabelPosition=bottom;verticalAlign=top;align=center;html=1;fontSize=12;fontStyle=0;aspect=fixed;shape=mxgraph.aws4.resourceIcon;resIcon=mxgraph.aws4.backint_agent;" vertex="1" parent="1">
          <mxGeometry x="333.5" y="360" width="50" height="50" as="geometry" />
        </mxCell>
        <mxCell id="epXiM4IwscZuHE9p7Xp_-57" value="" style="sketch=0;points=[[0,0,0],[0.25,0,0],[0.5,0,0],[0.75,0,0],[1,0,0],[0,1,0],[0.25,1,0],[0.5,1,0],[0.75,1,0],[1,1,0],[0,0.25,0],[0,0.5,0],[0,0.75,0],[1,0.25,0],[1,0.5,0],[1,0.75,0]];outlineConnect=0;fontColor=#232F3E;fillColor=#8C4FFF;strokeColor=#ffffff;dashed=0;verticalLabelPosition=bottom;verticalAlign=top;align=center;html=1;fontSize=12;fontStyle=0;aspect=fixed;shape=mxgraph.aws4.resourceIcon;resIcon=mxgraph.aws4.lake_formation;" vertex="1" parent="1">
          <mxGeometry x="450" y="360" width="52" height="52" as="geometry" />
        </mxCell>
        <mxCell id="epXiM4IwscZuHE9p7Xp_-58" value="" style="endArrow=classic;startArrow=classic;html=1;rounded=0;exitX=1;exitY=0.5;exitDx=0;exitDy=0;exitPerimeter=0;entryX=0;entryY=0.5;entryDx=0;entryDy=0;entryPerimeter=0;" edge="1" parent="1" source="epXiM4IwscZuHE9p7Xp_-56" target="epXiM4IwscZuHE9p7Xp_-57">
          <mxGeometry width="50" height="50" relative="1" as="geometry">
            <mxPoint x="330" y="315" as="sourcePoint" />
            <mxPoint x="520" y="315" as="targetPoint" />
          </mxGeometry>
        </mxCell>
        <mxCell id="epXiM4IwscZuHE9p7Xp_-59" value="Frontend" style="text;html=1;align=center;verticalAlign=middle;whiteSpace=wrap;rounded=0;fontSize=10;fontStyle=0" vertex="1" parent="1">
          <mxGeometry x="441" y="412.00000000000006" width="70" height="20" as="geometry" />
        </mxCell>
        <mxCell id="epXiM4IwscZuHE9p7Xp_-60" value="Backend" style="text;html=1;align=center;verticalAlign=middle;whiteSpace=wrap;rounded=0;fontSize=10;fontStyle=0" vertex="1" parent="1">
          <mxGeometry x="323.5" y="409.99000000000007" width="70" height="20" as="geometry" />
        </mxCell>
        <mxCell id="epXiM4IwscZuHE9p7Xp_-62" value="" style="image;html=1;image=img/lib/clip_art/computers/Database_128x128.png" vertex="1" parent="1">
          <mxGeometry x="263.5" y="365" width="50" height="30" as="geometry" />
        </mxCell>
        <mxCell id="epXiM4IwscZuHE9p7Xp_-63" value="BDD" style="text;html=1;align=center;verticalAlign=middle;whiteSpace=wrap;rounded=0;fontSize=10;fontStyle=0" vertex="1" parent="1">
          <mxGeometry x="253.5" y="393.63000000000005" width="70" height="20" as="geometry" />
        </mxCell>
      </root>
    </mxGraphModel>
  </diagram>
</mxfile>
